<svg xmlns="http://www.w3.org/2000/svg" width="1024" height="1024" viewBox="0 0 1024 1024"><path fill="#fff" stroke="#000" stroke-width="42.667" d="M750.959 252.791c7.01 0 11.362 2.07 14.793 5.5 3.422 3.427 5.495 7.757 5.5 14.75 0 7.006-2.074 11.362-5.5 14.792L541.586 512l224.166 224.124c3.426 3.43 5.495 7.791 5.5 14.793 0 7.01-2.069 11.362-5.5 14.793s-7.782 5.5-14.793 5.5c-7.006 0-11.362-2.069-14.793-5.5L512.042 541.544 287.874 765.71c-3.43 3.426-7.786 5.5-14.792 5.5-6.993-.004-11.323-2.078-14.75-5.5-3.431-3.43-5.5-7.782-5.5-14.793.002-7.002 2.071-11.362 5.5-14.793L482.456 512 258.332 287.833c-3.43-3.43-5.5-7.783-5.5-14.792.003-6.999 2.072-11.322 5.5-14.75s7.751-5.497 14.75-5.5c7.009 0 11.361 2.07 14.792 5.5l224.168 224.123 224.124-224.123c3.43-3.429 7.787-5.498 14.793-5.5z"/></svg>