<svg width="24" height="24" viewBox="0 0 24 24" fill="none" xmlns="http://www.w3.org/2000/svg">
    <path d="M4.30377 20.5932C3.96861 20.763 3.64261 20.7497 3.32577 20.5532C3.00894 20.3567 2.85052 20.0639 2.85052 19.6747V5.7247C2.85052 5.4762 2.92202 5.25462 3.06502 5.05995C3.20786 4.86545 3.39527 4.72253 3.62727 4.6312L8.15928 3.0372C8.34594 2.96653 8.53453 2.93537 8.72503 2.9437C8.91553 2.95203 9.10411 2.9832 9.29078 3.0372L15.3 5.1442L19.6963 3.3812C20.0314 3.22803 20.3584 3.24553 20.6773 3.4337C20.9961 3.62187 21.1555 3.91053 21.1555 4.2997V12.8322C21.1555 13.0809 21.0737 13.2818 20.91 13.435C20.7465 13.5883 20.5424 13.665 20.2978 13.665C20.0533 13.665 19.8502 13.5841 19.6885 13.4225C19.527 13.261 19.4463 13.0559 19.4463 12.8072V5.22745L15.95 6.55945V10.7697C15.95 10.9864 15.8792 11.1655 15.7375 11.3072C15.5959 11.4489 15.4167 11.5197 15.2 11.5197C14.9834 11.5197 14.8042 11.4489 14.6625 11.3072C14.5209 11.1655 14.45 10.9864 14.45 10.7697V6.55945L9.55003 4.90945V17.6285C9.55003 17.8938 9.47853 18.1352 9.33553 18.3527C9.19269 18.5702 8.99894 18.7266 8.75428 18.822L4.30377 20.5932ZM4.55377 18.741L8.05003 17.409V4.90945L4.55377 6.06645V18.741ZM16.4518 18.634C17.0571 18.634 17.5675 18.4233 17.983 18.002C18.3984 17.5805 18.604 17.077 18.6 16.4915C18.596 15.8861 18.3884 15.3767 17.977 14.9632C17.5655 14.5499 17.0571 14.3432 16.4518 14.3432C15.8463 14.3432 15.3378 14.5499 14.9263 14.9632C14.5149 15.3767 14.3093 15.8861 14.3093 16.4915C14.3093 17.097 14.5149 17.6054 14.9263 18.0167C15.3378 18.4282 15.8463 18.634 16.4518 18.634ZM16.4518 20.3432C15.3904 20.3432 14.4832 19.9665 13.73 19.2132C12.9767 18.46 12.6 17.5528 12.6 16.4915C12.6 15.4136 12.9767 14.5012 13.73 13.7542C14.4832 13.0074 15.3904 12.634 16.4518 12.634C17.5296 12.634 18.4419 13.0074 19.1888 13.7542C19.9358 14.5012 20.3093 15.4136 20.3093 16.4915C20.3093 16.867 20.2581 17.2247 20.1558 17.5647C20.0534 17.9047 19.9063 18.2227 19.7143 18.5187L21.6983 20.509C21.8516 20.6623 21.9293 20.8445 21.9313 21.0557C21.9333 21.2669 21.8556 21.4491 21.6983 21.6025C21.5491 21.7556 21.3689 21.8322 21.1575 21.8322C20.9464 21.8322 20.7622 21.7556 20.605 21.6025L18.6268 19.6552C18.3101 19.8845 17.9726 20.0565 17.6143 20.1712C17.2559 20.2859 16.8684 20.3432 16.4518 20.3432Z" fill="black" />
</svg>