<svg width="24" height="24" viewBox="0 0 24 24" fill="none" xmlns="http://www.w3.org/2000/svg">
<path d="M4.55384 21.1497C4.09384 21.1497 3.695 20.9808 3.35734 20.643C3.0195 20.3053 2.85059 19.9065 2.85059 19.4465V4.55398C2.85059 4.09231 3.0195 3.69206 3.35734 3.35323C3.695 3.01423 4.09384 2.84473 4.55384 2.84473H11.1593C11.3997 2.84473 11.6017 2.92814 11.7653 3.09498C11.929 3.26198 12.0108 3.46606 12.0108 3.70723C12.0108 3.94856 11.929 4.15006 11.7653 4.31173C11.6017 4.47323 11.3997 4.55398 11.1593 4.55398H4.55384V19.4465H11.1593C11.3997 19.4465 11.6017 19.5287 11.7653 19.6932C11.929 19.8577 12.0108 20.0608 12.0108 20.3025C12.0108 20.5441 11.929 20.7457 11.7653 20.9072C11.6017 21.0689 11.3997 21.1497 11.1593 21.1497H4.55384ZM17.8918 12.852H9.81584C9.5755 12.852 9.3735 12.7696 9.20984 12.605C9.04617 12.4405 8.96434 12.2374 8.96434 11.9957C8.96434 11.7542 9.04617 11.5526 9.20984 11.391C9.3735 11.2293 9.5755 11.1485 9.81584 11.1485H17.8418L15.9186 9.22523C15.7486 9.05439 15.6678 8.85431 15.6761 8.62498C15.6844 8.39548 15.7736 8.19673 15.9436 8.02873C16.1134 7.85689 16.3158 7.77198 16.5508 7.77398C16.7857 7.77598 16.9894 7.86189 17.1621 8.03173L20.5588 11.4285C20.7247 11.5998 20.8076 11.7991 20.8076 12.0262C20.8076 12.2534 20.7247 12.452 20.5588 12.622L17.1871 15.9937C17.0204 16.1636 16.8223 16.2453 16.5928 16.239C16.3632 16.2326 16.1602 16.1446 15.9838 15.9747C15.8203 15.8047 15.7375 15.6019 15.7353 15.3662C15.7332 15.1304 15.8193 14.9271 15.9936 14.7562L17.8918 12.852Z" fill="#4C2613"/>
</svg>
