<svg width="24" height="24" viewBox="0 0 24 24" fill="none" xmlns="http://www.w3.org/2000/svg">
<path d="M12.0061 16.4138L7.77685 19.6361C7.60685 19.7647 7.43485 19.8207 7.26085 19.8041C7.08701 19.7874 6.92543 19.7314 6.7761 19.6361C6.62693 19.5409 6.52018 19.4115 6.45585 19.2478C6.39151 19.0843 6.38635 18.9009 6.44035 18.6976L8.05435 13.4421L3.9061 10.4578C3.7361 10.342 3.62635 10.1959 3.57685 10.0196C3.52718 9.8434 3.53135 9.67665 3.58935 9.51931C3.64718 9.36615 3.74143 9.2284 3.8721 9.10606C4.00276 8.98373 4.17568 8.92256 4.39085 8.92256H9.53435L11.1793 3.44206C11.2333 3.2349 11.3402 3.07948 11.4998 2.97581C11.6595 2.87215 11.8263 2.82031 12.0001 2.82031C12.1739 2.82031 12.3407 2.87215 12.5003 2.97581C12.66 3.07948 12.7688 3.2349 12.8268 3.44206L14.4658 8.92256H19.6153C19.8265 8.92256 19.9974 8.98373 20.1281 9.10606C20.2588 9.2284 20.353 9.36615 20.4108 9.51931C20.4688 9.67665 20.473 9.8434 20.4233 10.0196C20.3738 10.1959 20.2641 10.342 20.0941 10.4578L15.9458 13.4421L17.5598 18.6916C17.6138 18.8989 17.6087 19.0833 17.5443 19.2448C17.48 19.4065 17.3733 19.535 17.2241 19.6303C17.0748 19.7295 16.9141 19.7874 16.7421 19.8041C16.5703 19.8207 16.3993 19.7628 16.2293 19.6303L12.0061 16.4138Z" fill="black"/>
</svg>
