<svg width="24" height="24" viewBox="0 0 24 24" fill="none" xmlns="http://www.w3.org/2000/svg">
<path d="M12.0001 5.99985V15.4596L15.8413 17.7809L14.8093 13.4324L18.1876 10.4921L13.7333 10.1041L12.0001 5.99985ZM12.0001 17.4429L7.33807 20.2546C7.18091 20.3499 7.01732 20.3924 6.84732 20.3821C6.67749 20.3718 6.52624 20.3189 6.39357 20.2236C6.26091 20.1284 6.16241 20.0052 6.09807 19.8539C6.03391 19.7027 6.02041 19.5318 6.05757 19.3411L7.28857 14.0291L3.17682 10.4421C3.02749 10.3136 2.93632 10.1685 2.90332 10.0069C2.87032 9.84535 2.87449 9.68793 2.91582 9.5346C2.95316 9.38127 3.03916 9.25185 3.17382 9.14635C3.30832 9.04069 3.47091 8.97952 3.66157 8.96285L9.09832 8.48785L11.2043 3.46985C11.279 3.29602 11.392 3.1666 11.5433 3.0816C11.6945 2.9966 11.8467 2.9541 12.0001 2.9541C12.1534 2.9541 12.3057 2.9966 12.4568 3.0816C12.6082 3.1666 12.7212 3.29602 12.7958 3.46985L14.9018 8.48785L20.3446 8.96285C20.5312 8.97952 20.6918 9.04069 20.8263 9.14635C20.961 9.25185 21.047 9.38127 21.0843 9.5346C21.1257 9.68793 21.1298 9.84535 21.0968 10.0069C21.0638 10.1685 20.9727 10.3136 20.8233 10.4421L16.7116 14.0291L17.9426 19.3411C17.9797 19.5318 17.9662 19.7027 17.9021 19.8539C17.8377 20.0052 17.7392 20.1284 17.6066 20.2236C17.4739 20.3189 17.3227 20.3718 17.1528 20.3821C16.9828 20.3924 16.8192 20.3499 16.6621 20.2546L12.0001 17.4429Z" fill="black"/>
</svg>
